<svg width="24" height="24" viewBox="0 0 24 24" fill="none" xmlns="http://www.w3.org/2000/svg">
<path id="Vector" d="M12.0006 0C5.37027 0 1.97411e-06 5.50596 1.97411e-06 12.3038C-0.00144297 14.8866 0.79036 17.4042 2.26309 19.4997C3.73582 21.5951 5.81469 23.1618 8.20481 23.9777C8.80484 24.0847 9.03045 23.7156 9.03045 23.392C9.03045 23.1004 9.01485 22.1321 9.01485 21.1011C6.0003 21.6707 5.22026 20.3481 4.98025 19.6554C4.84464 19.301 4.26021 18.2097 3.75019 17.9168C3.33017 17.6868 2.73014 17.1171 3.73459 17.1023C4.68024 17.0863 5.35467 17.9943 5.58028 18.3635C6.66033 20.2238 8.38482 19.7009 9.07485 19.3785C9.18046 18.5788 9.49488 18.0411 9.84049 17.7335C7.17036 17.4259 4.38022 16.3641 4.38022 11.6579C4.38022 10.3192 4.84464 9.21311 5.61028 8.35061C5.49028 8.04301 5.07025 6.78187 5.73029 5.09009C5.73029 5.09009 6.73474 4.76773 9.03045 6.35247C10.0074 6.07447 11.0168 5.93456 12.0306 5.9366C13.0507 5.9366 14.0707 6.0744 15.0308 6.35124C17.3265 4.75174 18.3309 5.09132 18.3309 5.09132C18.9909 6.7831 18.5709 8.04424 18.4509 8.35184C19.2154 9.21311 19.681 10.3045 19.681 11.6579C19.681 16.3801 16.8764 17.4259 14.2051 17.7335C14.6407 18.1174 15.0164 18.8556 15.0164 20.0097C15.0164 21.6547 15.0008 22.9774 15.0008 23.3933C15.0008 23.7156 15.2264 24.0995 15.8264 23.9765C18.2083 23.1517 20.278 21.5818 21.7443 19.4879C23.2105 17.394 23.9994 14.8815 24 12.3038C24 5.50596 18.6297 0 11.9994 0H12.0006Z" fill="white"/>
</svg>
