<svg width="24" height="24" viewBox="0 0 24 24" fill="none" xmlns="http://www.w3.org/2000/svg">
<g id="fa6-solid:user" clip-path="url(#clip0_127_20)">
<path id="Vector" d="M12 12C13.8186 12 15.5628 11.3679 16.8487 10.2426C18.1347 9.11742 18.8571 7.5913 18.8571 6C18.8571 4.4087 18.1347 2.88258 16.8487 1.75736C15.5628 0.632141 13.8186 0 12 0C10.1814 0 8.43723 0.632141 7.15127 1.75736C5.8653 2.88258 5.14286 4.4087 5.14286 6C5.14286 7.5913 5.8653 9.11742 7.15127 10.2426C8.43723 11.3679 10.1814 12 12 12ZM9.55179 14.25C4.275 14.25 0 17.9906 0 22.6078C0 23.3766 0.7125 24 1.59107 24H22.4089C23.2875 24 24 23.3766 24 22.6078C24 17.9906 19.725 14.25 14.4482 14.25H9.55179Z" fill="#07683A"/>
</g>
<defs>
<clipPath id="clip0_127_20">
<rect width="24" height="24" fill="white"/>
</clipPath>
</defs>
</svg>
