<svg width="24" height="24" viewBox="0 0 28 28" fill="none" xmlns="http://www.w3.org/2000/svg">
<g id="teenyicons:plant-solid" clip-path="url(#clip0_129_4)">
<path id="Vector" fill-rule="evenodd" clip-rule="evenodd" d="M11.2 7.2C11.2 5.29044 11.9586 3.45909 13.3088 2.10883C14.6591 0.758569 16.4904 0 18.4 0L24 0V5.6C24 7.50956 23.2414 9.34091 21.8912 10.6912C20.5409 12.0414 18.7096 12.8 16.8 12.8H12.8V24H11.2V17.6H7.2C5.29044 17.6 3.45909 16.8414 2.10883 15.4912C0.758569 14.1409 0 12.3096 0 10.4L0 4.8H5.6C7.8624 4.8 9.88 5.8432 11.2 7.4736V7.2ZM13.0336 9.8336L17.8336 5.0336L18.9664 6.1664L14.1664 10.9664L13.0336 9.8336ZM9.8336 15.7664L5.0336 10.9664L6.1664 9.8336L10.9664 14.6336L9.8336 15.7664Z" fill="#07683A"/>
</g>
<defs>
<clipPath id="clip0_129_4">
<rect width="24" height="24" fill="white"/>
</clipPath>
</defs>
</svg>
