<svg width="24" height="24" viewBox="0 0 24 24" fill="none" xmlns="http://www.w3.org/2000/svg">
<g id="fa6-regular:user" clip-path="url(#clip0_127_18)">
<path id="Vector" d="M16.2857 6C16.2857 5.00544 15.8342 4.05161 15.0305 3.34835C14.2267 2.64509 13.1366 2.25 12 2.25C10.8634 2.25 9.77327 2.64509 8.96954 3.34835C8.16582 4.05161 7.71429 5.00544 7.71429 6C7.71429 6.99456 8.16582 7.94839 8.96954 8.65165C9.77327 9.35491 10.8634 9.75 12 9.75C13.1366 9.75 14.2267 9.35491 15.0305 8.65165C15.8342 7.94839 16.2857 6.99456 16.2857 6ZM5.14286 6C5.14286 4.4087 5.8653 2.88258 7.15127 1.75736C8.43723 0.632141 10.1814 0 12 0C13.8186 0 15.5628 0.632141 16.8487 1.75736C18.1347 2.88258 18.8571 4.4087 18.8571 6C18.8571 7.5913 18.1347 9.11742 16.8487 10.2426C15.5628 11.3679 13.8186 12 12 12C10.1814 12 8.43723 11.3679 7.15127 10.2426C5.8653 9.11742 5.14286 7.5913 5.14286 6ZM2.64107 21.75H21.3589C20.8821 18.7828 17.9679 16.5 14.4482 16.5H9.55179C6.03214 16.5 3.11786 18.7828 2.64107 21.75ZM0 22.6078C0 17.9906 4.275 14.25 9.55179 14.25H14.4482C19.725 14.25 24 17.9906 24 22.6078C24 23.3766 23.2875 24 22.4089 24H1.59107C0.7125 24 0 23.3766 0 22.6078Z" fill="#07683A"/>
</g>
<defs>
<clipPath id="clip0_127_18">
<rect width="24" height="24" fill="white"/>
</clipPath>
</defs>
</svg>
