<svg width="24" height="24" viewBox="0 0 28 28" fill="none" xmlns="http://www.w3.org/2000/svg">
<path id="Vector" d="M13 25V11.7586M13 12.5862V17.5517M13 12.5862C13 10.8303 12.2776 9.14629 10.9916 7.90467C9.70563 6.66305 7.96148 5.96552 6.14286 5.96552H1V10.931C1 12.687 1.72245 14.3709 3.00841 15.6126C4.29437 16.8542 6.03852 17.5517 7.85714 17.5517H13M13 12.5862H18.1429C19.9615 12.5862 21.7056 11.8887 22.9916 10.6471C24.2776 9.40543 25 7.72143 25 5.96552V1H19.8571C18.0385 1 16.2944 1.69754 15.0084 2.93916C13.7224 4.18078 13 5.86477 13 7.62069V12.5862ZM13 12.5862L19.8571 5.96552M13 17.5517L6.14286 10.931" stroke="#07683A"/>
</svg>
